<svg width="158" height="20" viewBox="0 0 158 20" fill="none" xmlns="http://www.w3.org/2000/svg">
<path d="M43.4121 3.34028C45.3786 3.34028 47.0929 4.16383 48.5383 5.84453H52.5552C51.8493 4.21425 51.1938 3.3739 49.8156 2.24783C48.0173 0.80242 45.8492 0.0292969 43.5466 0.0292969C38.1011 0.0292969 33.6641 4.46636 33.6641 9.86142C33.6641 15.3237 38.1684 19.8616 43.597 19.8616C47.4458 19.8616 51.0089 17.5759 52.4207 14.1976H48.3198C46.6895 15.912 45.3618 16.5674 43.5298 16.5674C40.118 16.5674 37.1767 13.4917 37.1767 9.92865C37.1767 6.36555 40.0675 3.34028 43.4121 3.34028Z" fill="#1B5DF5"/>
<path d="M65.5123 6.98713C64.4535 5.62576 62.5207 4.68457 60.7055 4.68457C56.655 4.68457 53.5625 7.96195 53.5625 12.2645C53.5625 16.7016 56.5205 19.979 60.5374 19.979C61.8988 19.979 63.1089 19.5756 64.3862 18.7016C64.9913 18.2815 65.2938 18.0126 65.5291 17.7268V19.4916H68.6888V5.15517H65.5123V6.98713ZM61.2433 16.8361C58.8735 16.8361 57.0079 14.9033 57.0079 12.399C57.0079 9.82753 58.8567 7.8443 61.2433 7.8443C63.6635 7.8443 65.4283 9.72668 65.4283 12.3486C65.4283 14.9033 63.6299 16.8361 61.2433 16.8361Z" fill="#1B5DF5"/>
<path d="M74.6578 6.43271V5.15537H71.498V19.475H74.9435V11.4412C74.9435 10.0126 75.2292 9.2731 75.9687 8.68485C76.4729 8.28148 77.1956 8.06299 78.0528 8.02938V4.66797H77.7671C76.3889 4.66797 75.683 5.10495 74.6578 6.43271Z" fill="#1B5DF5"/>
<path d="M88.6055 3.34028C90.5719 3.34028 92.2863 4.16383 93.7317 5.84453H97.7485C97.0426 4.21425 96.3872 3.3739 95.009 2.24783C93.2106 0.80242 91.0425 0.0292969 88.74 0.0292969C83.2945 0.0292969 78.8574 4.46636 78.8574 9.86142C78.8574 15.3237 83.3617 19.8616 88.7904 19.8616C92.6392 19.8616 96.2023 17.5759 97.6141 14.1976H93.5132C91.8829 15.912 90.5551 16.5674 88.7231 16.5674C85.3113 16.5674 82.3701 13.4917 82.3701 9.92865C82.3701 6.36555 85.2777 3.34028 88.6055 3.34028Z" fill="#1B5DF5"/>
<path d="M108.69 12.4831C108.69 15.2731 107.665 16.8194 105.782 16.8194C103.816 16.8194 102.824 15.374 102.824 12.4831V5.15527H99.3789V13.5588C99.3789 15.9286 99.8663 17.2395 101.177 18.3992C102.253 19.3908 103.749 19.9623 105.278 19.9623C106.925 19.9623 107.866 19.4749 108.976 18.0463V19.4749H112.135V5.15527H108.69V12.4831Z" fill="#1B5DF5"/>
<path d="M126.726 0.399414H123.281V5.15581H121.6H121.163H119.112V0.399414H115.667V5.15581H113.986V8.31553H115.667V19.4754H119.112V8.31553H121.163H121.6H123.281V19.4754H126.726V8.31553H128.777V5.15581H126.726V0.399414Z" fill="#1B5DF5"/>
<path d="M137.146 4.58398C132.961 4.58398 129.6 8.06304 129.6 12.332C129.6 16.5842 132.961 19.9624 137.146 19.9624C140.255 19.9624 143.163 17.8615 144.037 14.9539H140.255C139.482 16.2145 138.457 16.8027 137.062 16.8027C135.331 16.8027 133.667 15.5422 133.213 13.8447H144.356C144.491 13.0547 144.558 12.6514 144.558 12.1135C144.541 8.01262 141.196 4.58398 137.146 4.58398ZM133.129 11.0883C133.583 9.08827 135.213 7.76052 137.18 7.76052C139.18 7.76052 140.709 9.03785 141.196 11.0883H133.129Z" fill="#1B5DF5"/>
<path d="M152.927 4.66797C151.566 4.66797 150.843 5.08814 149.818 6.43271V5.15537H146.658V19.475H150.104V11.4412C150.104 10.0126 150.389 9.2731 151.129 8.68485C151.633 8.28148 152.356 8.06299 153.213 8.02938V4.66797H152.927Z" fill="#1B5DF5"/>
<path d="M26.8072 12.5333H24.7232H17.3281H17.1432H16.9247C16.8239 12.5333 16.7398 12.6005 16.6894 12.6845C16.6054 12.8694 16.5045 13.0543 16.4205 13.2224L16.2692 13.4745C15.8154 14.2308 15.3448 14.7854 14.8238 15.2392L11.7985 12.819C12.7565 12.1803 13.3952 11.0879 13.3952 9.84415C13.3784 8.60043 12.7565 7.50797 11.7985 6.86931L14.8238 4.44909C15.3448 4.91969 15.8154 5.45752 16.2692 6.21383L16.4205 6.46594C16.5213 6.63401 16.6054 6.81889 16.6894 7.00376C16.723 7.0878 16.8239 7.15503 16.9247 7.15503H17.1432H17.3281H24.7232H26.8072C26.9249 7.15503 27.0089 7.03738 26.9753 6.91973C26.6392 5.97853 26.1518 5.15499 25.6139 4.4659C24.8408 3.44067 23.8492 2.53309 22.7399 1.82719C22.5046 1.67593 22.3702 1.5919 22.3702 1.5919C20.5886 0.533051 18.5214 -0.0551956 16.4541 0.0120325C16.3364 0.0120325 16.2356 0.0624532 16.1516 0.129681L14.7062 1.28937C8.20184 -2.40818 0 2.38183 0 9.82735C0 9.82735 0 9.82735 0 9.84415C0 9.84415 0 9.84415 0 9.86096C0 17.3065 8.20184 22.0965 14.7062 18.3989L16.1516 19.5586C16.2356 19.6259 16.3364 19.6763 16.4541 19.6763C18.5214 19.7435 20.5886 19.1385 22.3702 18.0964C22.3702 18.0964 22.5046 18.0124 22.7399 17.8611C23.8492 17.1552 24.824 16.2476 25.6139 15.2224C26.1518 14.5165 26.6392 13.693 26.9753 12.7686C27.0257 12.6509 26.9417 12.5333 26.8072 12.5333ZM17.1096 2.61712C17.1936 2.5667 17.2944 2.5499 17.3785 2.5499C18.5718 2.65074 19.7987 3.00369 20.8912 3.55832C21.2609 3.76 21.6475 3.9785 21.9836 4.21379L22.0004 4.2306C22.2357 4.39867 22.4878 4.58355 22.7231 4.78523C21.5298 4.78523 19.4626 4.78523 18.2693 4.78523C18.1516 4.49951 17.9163 4.16337 17.8323 4.04572C17.5297 3.64235 17.1936 3.25579 16.807 2.85242L17.1096 2.61712ZM2.52106 9.86096C2.48744 4.80204 7.84889 1.15491 12.5549 3.05411L7.6304 7.02057C6.77324 7.67605 6.21861 8.70127 6.2018 9.86096C6.21861 11.0206 6.77324 12.0459 7.6304 12.7014L12.5549 16.6678C7.84889 18.567 2.48744 14.9199 2.52106 9.86096ZM10.891 10.0795C10.6389 11.2223 8.97496 11.2223 8.72286 10.0795C8.68924 9.92819 8.68924 9.77693 8.72286 9.62566C8.97496 8.48278 10.6389 8.48278 10.891 9.62566C10.9246 9.77693 10.9246 9.945 10.891 10.0795ZM21.9836 15.4913C21.6307 15.7434 21.2609 15.9619 20.8743 16.1636C19.7819 16.7182 18.555 17.0712 17.3617 17.172C17.2608 17.172 17.1768 17.1552 17.0928 17.1048L16.7902 16.8527C17.1768 16.4661 17.5129 16.0628 17.8155 15.6594C17.8995 15.5417 18.1348 15.1888 18.2525 14.9199C19.4626 14.9199 21.513 14.9199 22.7063 14.9199C22.471 15.1384 22.2189 15.3233 21.9836 15.4913Z" fill="#1B5DF5"/>
<g clip-path="url(#clip0_1553_1851)">
<path d="M155.516 15.8262C155.141 15.8262 154.775 15.9373 154.463 16.1455C154.152 16.3537 153.909 16.6496 153.765 16.9957C153.622 17.3419 153.584 17.7229 153.657 18.0904C153.731 18.4579 153.911 18.7955 154.176 19.0605C154.441 19.3255 154.779 19.5059 155.146 19.579C155.514 19.6521 155.895 19.6146 156.241 19.4712C156.587 19.3278 156.883 19.0849 157.091 18.7734C157.299 18.4618 157.41 18.0955 157.41 17.7208C157.41 17.472 157.361 17.2256 157.266 16.9957C157.171 16.7659 157.031 16.557 156.855 16.3811C156.679 16.2052 156.471 16.0656 156.241 15.9704C156.011 15.8752 155.765 15.8262 155.516 15.8262ZM155.516 19.2365C155.216 19.2365 154.923 19.1476 154.674 18.981C154.424 18.8145 154.23 18.5778 154.115 18.3008C154.001 18.0239 153.971 17.7191 154.029 17.4251C154.088 17.1311 154.232 16.861 154.444 16.649C154.656 16.4371 154.926 16.2927 155.22 16.2342C155.514 16.1757 155.819 16.2058 156.096 16.3205C156.373 16.4352 156.609 16.6295 156.776 16.8787C156.943 17.128 157.031 17.421 157.031 17.7208C157.031 18.1228 156.872 18.5083 156.587 18.7925C156.303 19.0768 155.918 19.2365 155.516 19.2365ZM155.563 17.9614H155.29V18.5734H154.947V16.908H155.565C155.727 16.898 155.888 16.9442 156.02 17.0387C156.074 17.0849 156.117 17.1432 156.145 17.2091C156.172 17.2749 156.184 17.3464 156.179 17.4176C156.182 17.5176 156.157 17.6164 156.105 17.7018C156.051 17.7863 155.973 17.8524 155.881 17.8913L156.241 18.5715V18.5904H155.874L155.563 17.9785M155.29 17.7018H155.567C155.639 17.7059 155.71 17.6822 155.766 17.6355C155.791 17.6112 155.81 17.5815 155.822 17.5487C155.834 17.5159 155.839 17.4809 155.836 17.4461C155.839 17.4116 155.834 17.3769 155.823 17.3443C155.811 17.3116 155.793 17.2818 155.77 17.2566C155.742 17.2322 155.709 17.2137 155.674 17.2023C155.639 17.1909 155.602 17.1868 155.565 17.1903H155.29V17.7018Z" fill="#1B5DF5"/>
</g>
<defs>
<clipPath id="clip0_1553_1851">
<rect width="4.54708" height="4.54708" fill="white" transform="translate(153.24 15.4473)"/>
</clipPath>
</defs>
</svg>
