<svg width="505" height="67" viewBox="0 0 505 67" fill="none" xmlns="http://www.w3.org/2000/svg">
<path d="M143.189 11.1114C149.583 11.1114 155.293 13.8518 160.088 19.3328H173.334C172.192 16.5923 170.822 14.537 169.68 12.71C168.31 11.1114 166.711 9.28436 164.428 7.45737C158.49 2.66152 151.639 0.149414 143.874 0.149414C134.968 0.149414 127.203 3.34664 121.037 9.74111C114.643 16.1356 111.445 23.6719 111.445 32.5785C111.445 41.4851 114.643 49.2498 121.037 55.6442C127.431 62.0387 135.196 65.2359 144.102 65.2359C150.497 65.2359 156.206 63.4089 161.687 59.9833C167.168 56.5577 170.822 51.9903 173.106 46.5093H159.632C156.891 49.2498 154.379 51.3051 152.095 52.447C149.583 53.5889 147.071 54.274 144.102 54.274C138.393 54.274 133.597 52.2186 129.487 47.8795C125.376 43.5404 123.321 38.5162 123.321 32.5785C123.321 26.6408 125.376 21.6165 129.487 17.2774C132.912 13.3951 137.708 11.1114 143.189 11.1114Z" fill="#2E6FF6"/>
<path d="M215.811 23.215C213.984 20.9313 211.701 19.1043 208.732 17.7341C205.763 16.3638 202.794 15.6787 199.825 15.6787C193.202 15.6787 187.493 17.9624 183.154 22.7583C178.587 27.5541 176.303 33.4919 176.303 40.5714C176.303 47.8794 178.358 53.8171 182.697 58.8413C187.036 63.6372 192.517 66.1493 199.14 66.1493C203.479 66.1493 207.818 64.7791 211.701 62.0386C213.528 60.6683 214.898 59.7548 215.355 58.8413V64.5507H225.86V17.049H215.355V23.215H215.811ZM211.701 51.305C209.188 54.0455 205.763 55.4157 201.881 55.4157C197.998 55.4157 194.801 54.0455 192.061 51.305C189.32 48.5645 187.95 45.1389 187.95 40.7998C187.95 36.4607 189.32 33.0351 192.061 30.0663C194.801 27.0974 197.998 25.7272 201.881 25.7272C205.763 25.7272 209.188 27.0974 211.701 29.8379C214.213 32.5784 215.583 36.2323 215.583 40.5714C215.583 44.9105 214.213 48.5645 211.701 51.305Z" fill="#2E6FF6"/>
<path d="M250.524 16.8206C249.153 17.7341 247.555 19.1043 245.956 21.3881V17.2773H235.451V64.3223H246.87V37.831C246.87 33.4919 248.012 30.523 250.295 28.696C252.122 27.3258 254.406 26.6407 257.146 26.6407V15.6787H256.233C253.949 15.6787 252.122 15.9071 250.524 16.8206Z" fill="#2E6FF6"/>
<path d="M291.859 11.1114C298.253 11.1114 303.963 13.8518 308.758 19.3328H322.004C320.862 16.5923 319.492 14.537 318.35 12.71C316.98 11.1114 315.381 9.28436 313.097 7.45737C307.16 2.66152 300.309 0.149414 292.544 0.149414C283.638 0.149414 275.873 3.34664 269.707 9.74111C263.312 16.1356 260.115 23.6719 260.115 32.5785C260.115 41.4851 263.312 49.2498 269.707 55.6442C276.101 62.0387 283.866 65.2359 292.772 65.2359C299.167 65.2359 304.876 63.4089 310.357 59.9833C315.838 56.5577 319.492 51.9903 321.776 46.5093H308.302C305.561 49.2498 303.049 51.3051 300.765 52.447C298.253 53.5889 295.741 54.274 292.772 54.274C287.063 54.274 282.267 52.2186 278.157 47.8795C274.046 43.5404 271.991 38.5162 271.991 32.5785C271.991 26.6408 274.046 21.6165 278.157 17.2774C281.582 13.3951 286.378 11.1114 291.859 11.1114Z" fill="#2E6FF6"/>
<path d="M357.858 41.2564C357.858 45.8239 356.945 49.4779 355.346 51.7616C353.748 54.2737 351.236 55.4156 348.267 55.4156C341.872 55.4156 338.447 50.6198 338.447 41.2564V17.0488H327.028V44.682C327.028 48.5644 327.485 51.7616 328.399 54.0454C329.312 56.5575 330.911 58.6128 332.966 60.4398C336.62 63.8654 341.187 65.6924 346.44 65.6924C349.18 65.6924 351.464 65.2357 353.291 64.3222C355.118 63.4087 356.945 61.8101 358.772 59.5263V64.0938H369.277V17.0488H357.858V41.2564Z" fill="#2E6FF6"/>
<path d="M417.007 1.51953H405.817V17.0489H400.336H398.737H392.114V1.51953H380.696V17.0489H375.215V27.5541H380.696V64.3223H392.114V27.5541H398.737H400.336H405.817V64.3223H417.007V27.5541H423.858V17.0489H417.007V1.51953Z" fill="#2E6FF6"/>
<path d="M451.263 15.2217C444.411 15.2217 438.474 17.7338 433.678 22.758C428.882 27.7822 426.37 33.72 426.37 40.7995C426.37 47.8791 428.882 53.8168 433.678 58.6127C438.474 63.4085 444.411 65.9206 451.263 65.9206C456.287 65.9206 461.083 64.322 465.422 61.3532C469.761 58.1559 472.501 54.2736 474.1 49.4777H461.539C459.027 53.5885 455.602 55.6438 451.034 55.6438C448.065 55.6438 445.553 54.7303 443.041 52.9033C440.529 51.0763 439.159 48.7926 438.245 45.8237H474.785C475.242 43.3116 475.47 41.4846 475.47 40.1144C475.47 33.2632 472.958 27.5539 468.162 22.758C463.595 17.7338 457.885 15.2217 451.263 15.2217ZM438.245 36.6888C438.931 33.4916 440.529 30.7511 443.041 28.6957C445.553 26.6404 448.294 25.7269 451.491 25.7269C454.688 25.7269 457.657 26.6404 459.941 28.6957C462.224 30.7511 463.823 33.2632 464.737 36.6888H438.245Z" fill="#2E6FF6"/>
<path d="M503.331 15.6787C501.048 15.6787 499.221 16.1355 497.85 16.8206C496.48 17.7341 494.882 19.1043 493.283 21.3881V17.2773H482.778V64.3223H494.196V37.831C494.196 33.4919 495.338 30.523 497.622 28.696C499.449 27.3258 501.733 26.6407 504.473 26.6407V15.6787H503.331Z" fill="#2E6FF6"/>
<path d="M88.1515 41.7135H81.3003H56.8645H56.1794H55.4943C55.2659 41.7135 54.8092 41.9419 54.8092 42.1703C54.5808 42.8554 54.1241 43.3121 53.8957 43.9973L53.439 44.9108C51.8404 47.4229 50.4701 49.2499 48.6432 50.6201L38.5948 42.627C41.792 40.5717 43.8474 36.9177 43.8474 32.807C43.8474 28.6962 41.792 25.0422 38.5948 22.9869L48.6432 14.9938C50.2418 16.5924 51.8404 18.4194 53.439 20.7031L53.8957 21.6166C54.1241 22.0734 54.5808 22.7585 54.8092 23.4436C55.0376 23.672 55.2659 23.9004 55.4943 23.9004H56.1794H56.8645H81.0719H87.9231C88.3798 23.9004 88.6082 23.4436 88.3798 23.2153C87.238 20.2464 85.6394 17.5059 83.8124 15.2222C81.5287 12.0249 78.3315 9.05608 74.6775 6.77234C73.9924 6.3156 73.5357 6.08722 73.5357 6.08722C67.598 2.66162 60.9752 0.606253 54.1241 0.834627C53.6673 0.834627 53.439 1.063 53.2106 1.29138L48.4148 5.17373C26.9479 -6.93008 0 8.82771 0 33.2637C0 57.6997 26.9479 73.4575 48.4148 61.3537L53.2106 65.236C53.439 65.4644 53.8957 65.6928 54.1241 65.6928C60.9752 65.9211 67.8264 63.8658 73.5357 60.4402C73.5357 60.4402 73.9924 60.2118 74.6775 59.755C78.3315 57.4713 81.5287 54.5025 84.0408 51.0769C85.8677 48.7931 87.4663 46.0526 88.6082 43.0838C88.8366 42.1703 88.3798 41.7135 88.1515 41.7135ZM56.1794 9.28446C56.4078 9.05608 56.6362 9.05608 57.0929 9.05608C60.9752 9.28446 65.0859 10.4263 68.7399 12.2533C69.8817 12.9384 71.252 13.6236 72.3938 14.537C73.0789 14.9938 73.9924 15.6789 74.6775 16.364C70.7952 16.364 63.9441 16.364 60.0617 16.364C59.605 15.4505 58.9199 14.3087 58.6915 13.8519C57.778 12.4817 56.6362 11.3398 55.2659 9.96958L56.1794 9.28446ZM8.22138 33.0353C8.22138 16.364 25.806 4.48861 41.1069 10.6547L24.8925 23.672C22.1521 25.7274 20.3251 29.153 20.0967 33.0353C20.0967 36.9177 21.9237 40.3433 24.8925 42.3986L41.1069 55.4159C25.5776 61.582 7.99301 49.7066 8.22138 33.0353ZM35.626 33.7204C34.7125 37.3744 29.2316 37.3744 28.5465 33.7204C28.5465 33.2637 28.5465 32.8069 28.5465 32.1218C29.4599 28.4678 34.9409 28.4678 35.626 32.1218C35.8544 32.8069 35.8544 33.2637 35.626 33.7204ZM72.1654 51.5336C71.0236 52.4471 69.8817 53.1322 68.5115 53.8173C64.8575 55.6443 60.9752 56.7862 56.8645 57.0146C56.6362 57.0146 56.1794 57.0146 55.9511 56.7862L55.0376 55.8727C56.4078 54.5025 57.3213 53.3606 58.4631 51.9903C58.6915 51.5336 59.605 50.3917 59.8334 49.4782C63.7157 49.4782 70.5668 49.4782 74.4492 49.4782C73.764 50.3917 72.8506 51.0768 72.1654 51.5336Z" fill="#2E6FF6"/>
</svg>
