<?xml version="1.0" encoding="UTF-8"?>
<svg xmlns="http://www.w3.org/2000/svg" width="52" height="52" viewBox="0 0 52 52" fill="none">
  <rect width="52" height="52" rx="8" fill="url(#paint0_linear_2283_5677)"></rect>
  <g clip-path="url(#clip0_2283_5677)">
    <g clip-path="url(#clip1_2283_5677)">
      <path d="M22.81 19.847L36.9098 19.8323C38.5168 20.0583 39.7637 21.315 39.9965 22.9177L39.9989 36.8521C39.8011 38.4947 38.4997 39.8065 36.8517 39.9994H22.9754C21.3328 39.8016 20.021 38.5002 19.8281 36.8521L19.8312 22.9177C20.0517 21.3486 21.2551 20.122 22.8094 19.8464L22.81 19.847ZM23.0531 21.8012C22.4064 21.966 21.8902 22.4957 21.7854 23.1614L21.783 36.6084C21.8418 37.2637 22.3446 37.8063 22.9576 38.0004L36.6067 38.0445C37.262 37.9857 37.8046 37.4829 37.9987 36.8699L38.0428 23.2208C37.9785 22.5018 37.3722 21.8992 36.6655 21.7871L23.0525 21.8018L23.0531 21.8012Z" fill="white"></path>
      <path d="M25.5742 12.0093L12.0078 25.5757V21.8172L21.8158 12.0093H25.5742Z" fill="white"></path>
      <path d="M21.543 18.8531L28.3274 12.0411C29.0739 11.9064 29.8033 12.1152 30.4452 12.4882C30.6056 12.5813 31.1721 12.8979 31.0184 13.081L25.6364 18.4556L22.7354 18.5493L21.543 18.8537V18.8531Z" fill="white"></path>
      <path d="M18.8535 21.5422L18.5491 22.7346L18.4554 25.6357L13.0808 31.0177C12.8976 31.1714 12.581 30.6043 12.4879 30.4444C12.115 29.8026 11.9067 29.0732 12.0409 28.3267L18.8528 21.5422H18.8535Z" fill="white"></path>
      <path d="M19.0354 12.0093L12.0078 19.0369V14.9734C12.0078 13.4571 13.447 12.0001 14.9719 12.0093H19.036H19.0354Z" fill="white"></path>
      <path d="M32.1758 18.4867H28.3867L32.0839 14.7595C32.1096 14.7926 32.1752 14.9616 32.1752 14.9733V18.4873L32.1758 18.4867Z" fill="white"></path>
      <path d="M18.4856 32.1757H14.9715C14.9599 32.1757 14.7909 32.1101 14.7578 32.0844L18.485 28.3872V32.1763L18.4856 32.1757Z" fill="white"></path>
    </g>
  </g>
  <defs>
    <linearGradient id="paint0_linear_2283_5677" x1="26" y1="-1.57952e-06" x2="79" y2="117" gradientUnits="userSpaceOnUse">
      <stop stop-color="#1B5DF5"></stop>
      <stop offset="1" stop-color="#10368F"></stop>
    </linearGradient>
    <clipPath id="clip0_2283_5677">
      <rect width="28" height="28" fill="white" transform="translate(12 12)"></rect>
    </clipPath>
    <clipPath id="clip1_2283_5677">
      <rect width="28" height="28" fill="white" transform="translate(12 12)"></rect>
    </clipPath>
  </defs>
</svg>
