<?xml version="1.0" encoding="UTF-8"?>
<svg xmlns="http://www.w3.org/2000/svg" width="52" height="52" viewBox="0 0 52 52" fill="none">
  <rect width="52" height="52" rx="8" fill="url(#paint0_linear_3526_400)"></rect>
  <g clip-path="url(#clip0_3526_400)">
    <path d="M33.6894 20.2289H16.7555C16.2536 20.2289 15.707 20.6711 15.5715 21.1523C15.2614 22.2579 15.6378 24.2464 15.4979 25.4748C15.4475 25.917 15.1792 26.2176 14.8374 26.3694C13.9909 26.7451 13.0549 26.0587 13.0765 25.1323C13.1328 22.8027 12.3958 19.9702 14.5677 18.4455C14.885 18.223 15.2859 17.801 16.1714 17.7663H33.6909C33.2453 17.1073 31.8449 16.2416 31.7613 15.4511C31.6257 14.1866 32.902 13.5681 33.8683 14.3369C35.1662 15.3702 36.3474 17.0264 37.641 18.1175C38.0881 18.6074 38.0895 19.3849 37.641 19.8777C36.3474 20.9688 35.1662 22.6249 33.8683 23.6582C32.9035 24.4271 31.6257 23.8085 31.7613 22.544C31.8464 21.7535 33.2453 20.8879 33.6909 20.2289H33.6894Z" fill="white"></path>
    <path d="M17.3108 35.234C17.7564 35.893 19.1568 36.7586 19.2404 37.5491C19.376 38.8137 18.0997 39.4322 17.1334 38.6634C15.8701 37.659 14.7192 36.0649 13.4674 34.9738C13.378 34.8958 13.2929 34.8105 13.228 34.7094C12.9569 34.2845 12.9569 33.7223 13.228 33.296C13.2929 33.1948 13.3765 33.1096 13.4674 33.0301C14.7192 31.939 15.8715 30.3464 17.1334 29.3406C18.0982 28.5717 19.376 29.1903 19.2404 30.4548C19.1553 31.2453 17.7564 32.111 17.3108 32.77H34.2447C34.7466 32.77 35.2932 32.3277 35.4288 31.8465C35.7388 30.7409 35.3624 28.7524 35.5023 27.524C35.5528 27.0818 35.821 26.7812 36.1628 26.6294C37.0079 26.2551 37.9453 26.9372 37.9251 27.8622C37.8718 30.2872 38.6333 33.2237 36.2234 34.6949C35.9551 34.8582 35.5874 35.2152 34.8303 35.2325H17.3108V35.234Z" fill="white"></path>
  </g>
  <defs>
    <linearGradient id="paint0_linear_3526_400" x1="26" y1="-1.57952e-06" x2="79" y2="117" gradientUnits="userSpaceOnUse">
      <stop stop-color="#1B5DF5"></stop>
      <stop offset="1" stop-color="#10368F"></stop>
    </linearGradient>
    <clipPath id="clip0_3526_400">
      <rect width="25" height="25" fill="white" transform="translate(13 14)"></rect>
    </clipPath>
  </defs>
</svg>
