<?xml version="1.0" encoding="UTF-8"?>
<svg xmlns="http://www.w3.org/2000/svg" width="52" height="52" viewBox="0 0 52 52" fill="none">
  <rect width="52" height="52" rx="8" fill="url(#paint0_linear_2283_5675)"></rect>
  <g clip-path="url(#clip0_2283_5675)">
    <path d="M24.7607 12.0387C31.3837 11.5642 37.4645 15.5136 39.3808 21.9062C39.7048 22.988 40.1394 25.0532 39.9573 26.1436C39.8051 27.0548 38.2421 27.1521 38.0355 26.0592C37.923 25.4642 37.9737 24.6863 37.8692 24.0289C36.2793 14.0385 23.6464 10.4823 16.9341 18.0607C10.5813 25.2342 15.0276 36.8568 24.5058 37.9472C24.9918 38.0029 25.9105 37.9454 26.2913 38.1136C27.1587 38.4964 26.9674 39.8638 26.0859 39.9702C25.037 40.0962 23.4135 39.7947 22.3811 39.5244C14.2568 37.3932 9.86675 28.5042 13.0337 20.6873C14.9469 15.9643 19.6316 12.4063 24.7607 12.0387Z" fill="white"></path>
    <path d="M30.7349 39.9853C30.6707 39.9853 30.6065 39.9823 30.5423 39.9762C29.6798 39.8954 28.9928 39.3035 28.6566 38.3507C27.3375 34.8538 26.2012 31.448 25.2782 28.2294C25.1217 27.6827 24.9456 26.651 25.5251 25.8817C25.7757 25.5496 26.2586 25.1533 27.1376 25.1533C28.0453 25.1533 29.2642 25.4958 29.571 25.5967C33.2582 26.648 35.0553 27.2748 38.2968 28.6367C38.6642 28.7915 39.2791 29.0495 39.6214 29.7473C40.1483 30.8218 39.7809 32.1434 38.7852 32.7562C38.1299 33.1592 37.1739 33.4209 36.2491 33.6747C35.6091 33.8502 34.9471 34.0312 34.5045 34.2325C34.3413 34.3064 34.3028 34.345 34.2288 34.5083C34.0173 34.9749 33.837 35.6335 33.6634 36.2708C33.4238 37.1483 33.1756 38.0559 32.7869 38.7304C32.3388 39.5083 31.5491 39.9853 30.7355 39.9853H30.7349ZM27.1376 26.8657C26.9787 26.8657 26.9035 26.8975 26.8919 26.9128C26.8424 26.9788 26.7843 27.2724 26.9237 27.7579C27.8338 30.935 28.9573 34.2985 30.2612 37.7556L30.2685 37.7752C30.3302 37.9513 30.4684 38.2497 30.7019 38.2718C30.8724 38.2877 31.134 38.1702 31.304 37.8755C31.5827 37.3917 31.8009 36.5924 32.0124 35.82C32.2043 35.118 32.4024 34.3927 32.6707 33.8013C32.9177 33.2576 33.2545 32.9207 33.7979 32.6736C34.3645 32.4161 35.0932 32.2168 35.798 32.0235C36.6066 31.8021 37.4429 31.5728 37.8897 31.2982C38.1299 31.1508 38.221 30.779 38.0859 30.5026C38.0419 30.4127 37.9673 30.3558 37.6348 30.2164C34.4636 28.8838 32.7056 28.2716 29.0845 27.2393L29.0429 27.2265C28.7428 27.1244 27.736 26.8669 27.1382 26.8669L27.1376 26.8657Z" fill="white"></path>
    <path d="M29.8146 21.9885C28.0249 20.281 25.243 19.9966 23.1317 21.2699C19.8236 23.2648 19.5766 27.9468 22.5834 30.3527C23.254 30.889 25.1373 31.3453 24.3976 32.5445C23.8573 33.4209 22.8933 32.8533 22.2319 32.4736C18.4666 30.3111 17.3523 25.3288 19.8193 21.7396C22.9056 17.2502 29.6979 17.4709 32.4467 22.1927C32.8312 22.8532 33.4626 23.9601 32.4626 24.442C31.4626 24.9239 31.1337 23.8329 30.7615 23.2073C30.5188 22.7994 30.1569 22.3144 29.8146 21.9879V21.9885Z" fill="white"></path>
  </g>
  <defs>
    <linearGradient id="paint0_linear_2283_5675" x1="26" y1="-1.57952e-06" x2="79" y2="117" gradientUnits="userSpaceOnUse">
      <stop stop-color="#1B5DF5"></stop>
      <stop offset="1" stop-color="#10368F"></stop>
    </linearGradient>
    <clipPath id="clip0_2283_5675">
      <rect width="28" height="28" fill="white" transform="translate(12 12)"></rect>
    </clipPath>
  </defs>
</svg>
