<?xml version="1.0" encoding="UTF-8"?>
<svg xmlns="http://www.w3.org/2000/svg" width="52" height="52" viewBox="0 0 52 52" fill="none">
  <rect width="52" height="52" rx="8" fill="url(#paint0_linear_3921_393)"></rect>
  <g clip-path="url(#clip0_3921_393)">
    <path d="M41 20.1265V35.7882C41 35.8459 40.9944 35.9041 40.9818 35.9605C40.9781 35.9762 40.9749 35.9924 40.9712 36.0081C40.5622 37.7728 38.9563 39 37.1456 39H14.7441C13.722 39 12.7299 38.6053 12.0184 37.8712C11.4672 37.303 11.0971 36.5631 11 35.7181V20.2837C11.1754 18.6142 12.5927 17.1533 14.2813 17.003C15.775 16.8702 17.4292 17.1239 18.9392 16.9736C19.3 16.104 19.4403 15.1406 20.0359 14.3826C20.6315 13.6246 21.6405 12.9975 22.5906 13C24.9675 13.0069 27.0012 13.0144 29.3699 13.0175C29.5196 13.0175 29.6693 13.0301 29.8152 13.0614C31.0046 13.3164 31.9823 14.1188 32.4664 15.2533C32.5698 15.4951 32.98 16.9209 33.0589 16.9736C34.5696 17.1239 36.2224 16.8702 37.7168 17.003C39.2112 17.1358 40.8109 18.5572 40.9994 20.1265H41ZM22.8643 15.0222C22.6407 15.0178 22.4165 15.0573 22.2136 15.1531C21.0843 15.6856 21.0743 17.4584 20.5539 18.4632C20.376 18.8059 20.106 18.9682 19.7202 19.0045C18.0711 19.1592 16.102 18.8147 14.4748 19.0089C13.6487 19.1079 13.0199 19.8276 12.9967 20.6552V35.4086C13.075 36.3119 13.747 36.9597 14.6527 37.0029H37.4081C38.2874 36.9265 38.9256 36.2906 39.002 35.4086V20.5932C38.9363 19.7594 38.3106 19.0872 37.4676 19.0026C35.8323 18.8379 33.9182 19.1586 32.2785 19.0045C31.894 18.9682 31.6228 18.8072 31.4449 18.4632C30.8117 17.241 30.9626 14.9865 29.1582 15.0002C26.3548 15.0215 25.0032 15.0623 22.865 15.0228L22.8643 15.0222Z" fill="white"></path>
    <path d="M25.2995 20.0205C31.604 19.4987 35.8041 26.4823 32.2008 31.7332C29.291 35.9736 23.061 36.1171 19.9732 31.995C16.4859 27.3393 19.5185 20.4985 25.2995 20.0205ZM25.612 22.0201C21.4094 22.3409 19.1202 27.001 21.4225 30.5461C23.5664 33.8474 28.5782 33.7723 30.6507 30.4333C33.0144 26.6251 30.082 21.6787 25.612 22.0201Z" fill="white"></path>
    <path d="M35.7964 21.0165C37.2025 20.7891 37.4085 22.7912 36.2041 22.9861C34.798 23.2135 34.592 21.2113 35.7964 21.0165Z" fill="white"></path>
  </g>
  <defs>
    <linearGradient id="paint0_linear_3921_393" x1="26" y1="-1.57952e-06" x2="79" y2="117" gradientUnits="userSpaceOnUse">
      <stop stop-color="#1B5DF5"></stop>
      <stop offset="1" stop-color="#10368F"></stop>
    </linearGradient>
    <clipPath id="clip0_3921_393">
      <rect width="30" height="26" fill="white" transform="translate(11 13)"></rect>
    </clipPath>
  </defs>
</svg>
