<?xml version="1.0" encoding="UTF-8"?>
<svg xmlns="http://www.w3.org/2000/svg" width="52" height="52" viewBox="0 0 52 52" fill="none">
  <rect width="52" height="52" rx="8" fill="url(#paint0_linear_2283_5671)"></rect>
  <g clip-path="url(#clip0_2283_5671)">
    <path d="M40.987 27.6098V28.1015C40.9055 28.3285 40.5516 28.7776 40.314 28.7776H27.5808L32.133 36.8748C32.2433 37.4467 31.8596 37.9778 31.3004 37.9994H20.7582C20.0734 38.0117 19.6533 37.2968 19.9408 36.6447L24.4191 28.7769H11.6865C11.6495 28.7769 11.3937 28.6252 11.3438 28.5839C10.8045 28.1391 10.9401 27.2569 11.5668 26.9917C21.1607 26.8831 30.794 26.917 40.3915 26.9744C40.7054 27.0817 40.8421 27.3217 40.987 27.6092V27.6098ZM22.312 36.1531H29.6885L25.9718 29.6986L22.312 36.1531Z" fill="white"></path>
    <path d="M16.9275 14.0262C21.3131 14.4925 23.1403 20.4868 19.8555 23.6465C16.2808 27.0851 10.5966 24.0481 11.0226 18.9816C11.2268 16.5474 13.3099 14.2736 15.6395 14.0262C15.9604 13.9923 16.6059 13.9923 16.9275 14.0262ZM15.9205 15.8879C11.1112 16.3876 12.2373 24.2585 17.0466 23.1555C21.2779 22.1851 20.2921 15.4339 15.9205 15.8879Z" fill="white"></path>
    <path d="M36.3641 14.0259C38.2377 14.3559 39.8596 15.5601 40.5895 17.4262C40.7814 17.9172 40.8865 18.4255 40.9886 18.9431C40.9633 19.3416 41.0232 19.7802 40.9886 20.1725C40.5772 24.8411 34.822 26.7893 31.7989 23.2749C28.9712 19.9862 30.9088 14.4688 35.0761 14.0259H36.3641ZM35.3572 15.8876C30.5479 16.3873 31.6739 24.2582 36.4832 23.1552C40.7145 22.1848 39.7287 15.4336 35.3572 15.8876Z" fill="white"></path>
  </g>
  <defs>
    <linearGradient id="paint0_linear_2283_5671" x1="26" y1="-1.57952e-06" x2="79" y2="117" gradientUnits="userSpaceOnUse">
      <stop stop-color="#1B5DF5"></stop>
      <stop offset="1" stop-color="#10368F"></stop>
    </linearGradient>
    <clipPath id="clip0_2283_5671">
      <rect width="30" height="24" fill="white" transform="translate(11 14)"></rect>
    </clipPath>
  </defs>
</svg>
